<svg width="20" height="20" viewBox="0 0 20 20" fill="none" xmlns="http://www.w3.org/2000/svg">
<path d="M4.45001 1.7657e-05C3.86517 -0.00163212 3.28576 0.112344 2.74512 0.335393C2.20448 0.558442 1.71326 0.886162 1.29971 1.29971C0.886162 1.71326 0.558442 2.20448 0.335393 2.74512C0.112344 3.28576 -0.00163212 3.86517 1.7657e-05 4.45001V15.55C-0.00163212 16.1348 0.112344 16.7142 0.335393 17.2549C0.558442 17.7955 0.886162 18.2867 1.29971 18.7003C1.71326 19.1138 2.20448 19.4416 2.74512 19.6646C3.28576 19.8877 3.86517 20.0016 4.45001 20H15.55C16.1348 20.0016 16.7142 19.8877 17.2549 19.6646C17.7955 19.4416 18.2867 19.1138 18.7003 18.7003C19.1138 18.2867 19.4416 17.7955 19.6646 17.2549C19.8877 16.7142 20.0016 16.1348 20 15.55V4.45001C20.0016 3.86517 19.8877 3.28576 19.6646 2.74512C19.4416 2.20448 19.1138 1.71326 18.7003 1.29971C18.2867 0.886162 17.7955 0.558442 17.2549 0.335393C16.7142 0.112344 16.1348 -0.00163212 15.55 1.7657e-05H4.45001ZM9.88562 2.13814C11.8325 2.13814 13.5931 2.89064 14.935 4.29626C15.9544 5.35438 16.5269 6.47688 16.82 7.95563C16.9206 8.4475 16.9206 9.78813 16.8256 10.3412C16.5146 12.1001 15.551 13.6767 14.1275 14.7556C13.62 15.14 12.3794 15.8075 12.1806 15.8075C12.1056 15.8075 12.1 15.7325 12.1325 15.4231C12.1944 14.9281 12.2525 14.8275 12.5325 14.71C12.9781 14.525 13.74 13.9806 14.2056 13.5156C15.0194 12.7016 15.5975 11.6824 15.8787 10.5662C16.0544 9.87875 16.0312 8.35188 15.8394 7.64625C15.2337 5.39938 13.3975 3.65564 11.1519 3.18626C10.5012 3.05314 9.3125 3.05314 8.65188 3.18626C6.37938 3.65564 4.49751 5.48813 3.92501 7.79313C3.77189 8.42063 3.77189 9.94812 3.92501 10.5731C4.30563 12.1 5.29251 13.4987 6.58438 14.3325C6.83876 14.5019 7.14438 14.6744 7.27188 14.7269C7.55125 14.8469 7.61375 14.9487 7.665 15.4394C7.6975 15.7425 7.69063 15.8269 7.62 15.8269C7.57438 15.8269 7.2325 15.68 6.87063 15.5075L6.83813 15.4819C4.77751 14.4694 3.45876 12.7544 2.97751 10.4719C2.86064 9.8825 2.83751 8.48 2.95501 7.93938C3.25439 6.48751 3.82751 5.35501 4.78063 4.35251C6.15501 2.90314 7.9225 2.13814 9.88813 2.13814H9.88562ZM10 4.48251C10.309 4.48166 10.6173 4.51097 10.9206 4.57001C13.2425 5.08751 14.8856 7.40938 14.5662 9.71313C14.4394 10.6437 14.1206 11.4062 13.5544 12.1156C13.2744 12.4737 12.5937 13.0731 12.4737 13.0731C12.4537 13.0731 12.4344 12.845 12.4344 12.5712V12.0662L12.7794 11.6531C14.0875 10.0875 13.9937 7.9 12.5675 6.46813C12.0144 5.90813 11.3725 5.57876 10.5456 5.43001C10.0125 5.32938 9.90125 5.32938 9.34125 5.42313C8.48875 5.56001 7.83063 5.88813 7.24438 6.46813C5.81251 7.8875 5.71751 10.0875 7.02688 11.6531L7.37188 12.0662V12.5744C7.37188 12.8544 7.34875 13.0787 7.31938 13.0787C7.29688 13.0787 7.10125 12.9456 6.89251 12.7794L6.86313 12.7694C6.17001 12.2162 5.55813 11.2362 5.30376 10.2725C5.15126 9.69 5.15126 8.58688 5.31063 8.00688C5.73063 6.44126 6.88626 5.22688 8.485 4.65751C8.82688 4.53688 9.42813 4.47188 9.995 4.48188L10 4.48251ZM9.88937 6.97251C10.15 6.97251 10.4069 7.025 10.5962 7.1225C10.9994 7.33438 11.3356 7.74063 11.4619 8.17063C11.8494 9.48563 10.4562 10.6381 9.1925 10.0487H9.18313C8.5875 9.77187 8.26813 9.25125 8.26125 8.57375C8.26125 7.96188 8.59938 7.43125 9.18875 7.11876C9.37438 7.02126 9.63188 6.97188 9.89187 6.97188L9.88937 6.97251ZM9.8825 10.915C10.7069 10.9119 11.3019 11.2044 11.5231 11.7219C11.6887 12.1094 11.6275 13.33 11.3406 15.3062C11.1487 16.6862 11.0412 17.0344 10.775 17.2694C10.4069 17.5944 9.88937 17.6862 9.39438 17.51H9.39188C8.79625 17.295 8.66875 17.005 8.42125 15.3056C8.13875 13.33 8.07625 12.1087 8.24313 11.7212C8.46063 11.2069 9.05313 10.9181 9.88312 10.9144L9.8825 10.915Z" fill="white"/>
</svg>
