<svg width="60" height="60" viewBox="0 0 60 60" fill="none" xmlns="http://www.w3.org/2000/svg">
<path d="M52.5 15.5005C52.5 14.0591 52.4968 13.1278 52.439 12.4194C52.3835 11.7405 52.2895 11.4884 52.2266 11.3648C51.987 10.8948 51.6052 10.513 51.1352 10.2734C51.0117 10.2105 50.7595 10.1165 50.0806 10.061C49.3722 10.0032 48.4409 10 46.9995 10H46.001C43.1599 10 41.1782 10.001 39.6362 10.127C38.1233 10.2506 37.2526 10.4824 36.5942 10.8179C35.1837 11.5368 34.0368 12.6837 33.3179 14.0942C32.9824 14.7526 32.7506 15.6233 32.6269 17.1362C32.564 17.9074 32.5333 18.7883 32.5171 19.8316L32.5 23.501V45.2759C33.7496 44.2669 35.1813 43.5066 36.7187 43.0396C38.5785 42.4748 40.5875 42.5 43.562 42.5H46.9995C48.4409 42.5 49.3722 42.4968 50.0806 42.439C50.7595 42.3835 51.0117 42.2895 51.1352 42.2266C51.6052 41.987 51.987 41.6052 52.2266 41.1353C52.2895 41.0117 52.3835 40.7595 52.439 40.0806C52.4968 39.3722 52.5 38.4409 52.5 36.9995V15.5005ZM7.5 36.9995C7.5 38.4409 7.50316 39.3722 7.56103 40.0806C7.61652 40.7595 7.71046 41.0117 7.77343 41.1353C8.01303 41.6052 8.39482 41.987 8.86474 42.2266C8.98834 42.2896 9.24046 42.3835 9.91943 42.439C10.6278 42.4968 11.5591 42.5 13.0005 42.5H16.438C19.4125 42.5 21.4215 42.4748 23.2812 43.0396C24.8187 43.5066 26.2504 44.2669 27.5 45.2759V23.501C27.5 20.6599 27.499 18.6782 27.373 17.1362C27.2494 15.6233 27.0176 14.7526 26.6821 14.0942C25.9632 12.6837 24.8163 11.5368 23.4058 10.8179C22.7474 10.4824 21.8767 10.2506 20.3638 10.127C18.8218 10.001 16.8401 10 13.999 10H13.0005C11.5591 10 10.6278 10.0032 9.91943 10.061C9.24046 10.1165 8.98834 10.2105 8.86474 10.2734C8.39482 10.513 8.01303 10.8948 7.77343 11.3648C7.71046 11.4884 7.61652 11.7405 7.56103 12.4194C7.50316 13.1278 7.5 14.0591 7.5 15.5005V36.9995ZM57.5 36.9995C57.5 38.3584 57.5027 39.5291 57.4243 40.4883C57.3435 41.4764 57.164 42.46 56.6821 43.4058C55.9632 44.8163 54.8163 45.9632 53.4058 46.6821C52.46 47.164 51.4764 47.3435 50.4883 47.4243C49.5291 47.5027 48.3584 47.5 46.9995 47.5H43.562C40.2763 47.5 39.1531 47.5266 38.1714 47.8247C37.2286 48.1112 36.3521 48.5809 35.5908 49.2066C34.7981 49.8581 34.152 50.7763 32.3291 53.5107L32.0801 53.8867C31.6164 54.5822 30.8359 55 30 55C29.1641 55 28.3836 54.5822 27.9199 53.8867L27.6709 53.5107C25.848 50.7763 25.2019 49.8581 24.4092 49.2066C23.6479 48.5809 22.7714 48.1112 21.8286 47.8247C20.8469 47.5266 19.7236 47.5 16.438 47.5H13.0005C11.6416 47.5 10.4709 47.5027 9.51171 47.4243C8.52357 47.3435 7.53998 47.164 6.59423 46.6821C5.18368 45.9632 4.0368 44.8163 3.31787 43.4058C2.83599 42.46 2.65646 41.4764 2.57568 40.4883C2.49731 39.5291 2.5 38.3584 2.5 36.9995V15.5005C2.5 14.1416 2.49731 12.9709 2.57568 12.0117C2.65646 11.0236 2.83599 10.04 3.31787 9.09425C4.0368 7.68369 5.18368 6.53682 6.59423 5.81788C7.53998 5.336 8.52357 5.15647 9.51171 5.07569C10.4709 4.99733 11.6416 5.00001 13.0005 5.00001H13.999C16.758 5.00001 18.9786 4.99757 20.7715 5.14405C22.5932 5.2929 24.1933 5.60817 25.6738 6.36232C27.3833 7.23334 28.8604 8.48247 30 10.0025C31.1396 8.48247 32.6167 7.23334 34.3262 6.36232C35.8067 5.60817 37.4067 5.2929 39.2285 5.14405C41.0214 4.99757 43.242 5.00001 46.001 5.00001H46.9995C48.3584 5.00001 49.5291 4.99733 50.4883 5.07569C51.4764 5.15647 52.46 5.336 53.4058 5.81788C54.8163 6.53682 55.9632 7.68369 56.6821 9.09425C57.164 10.04 57.3435 11.0236 57.4243 12.0117C57.5027 12.9709 57.5 14.1416 57.5 15.5005V36.9995Z" fill="url(#paint0_linear_20_74)"/>
<defs>
<linearGradient id="paint0_linear_20_74" x1="10.6637" y1="45.7948" x2="45.0579" y2="11.8003" gradientUnits="userSpaceOnUse">
<stop stop-color="#F7E93F"/>
<stop offset="0.5112" stop-color="#FB09B4"/>
<stop offset="1" stop-color="#9100F8"/>
</linearGradient>
</defs>
</svg>
