<svg width="17" height="17" viewBox="0 0 17 17" fill="none" xmlns="http://www.w3.org/2000/svg">
<path fill-rule="evenodd" clip-rule="evenodd" d="M0 8.33333C0 3.73083 3.73083 0 8.33333 0C12.9358 0 16.6667 3.73083 16.6667 8.33333C16.6667 12.9358 12.9358 16.6667 8.33333 16.6667C3.73083 16.6667 0 12.9358 0 8.33333ZM8.33333 5C8.33333 4.77899 8.24554 4.56702 8.08926 4.41074C7.93297 4.25446 7.72101 4.16667 7.5 4.16667C7.27899 4.16667 7.06702 4.25446 6.91074 4.41074C6.75446 4.56702 6.66667 4.77899 6.66667 5V9.16667C6.66667 9.38768 6.75446 9.59964 6.91074 9.75592C7.06702 9.9122 7.27899 10 7.5 10H11.6667C11.8877 10 12.0996 9.9122 12.2559 9.75592C12.4122 9.59964 12.5 9.38768 12.5 9.16667C12.5 8.94565 12.4122 8.73369 12.2559 8.57741C12.0996 8.42113 11.8877 8.33333 11.6667 8.33333H8.33333V5Z" fill="#00FF88"/>
</svg>
