<svg width="60" height="60" viewBox="0 0 60 60" fill="none" xmlns="http://www.w3.org/2000/svg">
<path d="M30 15C30 12.2427 30.8926 9.69392 32.4048 7.62695C31.6152 7.54316 30.8129 7.5 30 7.5C19.5183 7.5 10.7081 14.6667 8.20801 24.3677L18.7573 23.4302C20.127 23.3082 21.4464 23.9457 22.2046 25.0757L22.3486 25.3076L26.8311 33.1665L33.6768 37.0801C35.7208 38.2482 36.1952 40.9884 34.6631 42.7759L28.75 49.6753V52.4634C29.1638 52.486 29.5805 52.5 30 52.5C42.4264 52.5 52.5 42.4264 52.5 30C52.5 27.8577 52.1984 25.7882 51.6406 23.8281C51.544 23.9582 51.4537 24.093 51.355 24.2212C49.3524 26.8215 46.6845 29.3507 44.2676 31.7676C43.2913 32.7439 41.7087 32.7439 40.7324 31.7676C38.3155 29.3507 35.6476 26.8215 33.645 24.2212C31.6178 21.5889 30 18.554 30 15ZM42.5 11.25C44.2259 11.25 45.625 12.6491 45.625 14.375C45.625 16.1009 44.2259 17.5 42.5 17.5C40.7741 17.5 39.375 16.1009 39.375 14.375C39.375 12.6491 40.7741 11.25 42.5 11.25ZM7.5 30C7.5 40.2571 14.3652 48.9048 23.75 51.6138V49.2114C23.7502 48.3167 24.0711 47.4518 24.6533 46.7725L29.8804 40.6689L24.0552 37.3389C23.4736 37.0063 22.9907 36.5242 22.6587 35.9424L18.4009 28.4814L7.51221 29.4507C7.50783 29.6333 7.5 29.8163 7.5 30ZM35 15C35 16.9688 35.8822 18.9349 37.605 21.1719C38.9419 22.9078 40.6281 24.6021 42.5 26.4624C44.3719 24.6021 46.0581 22.9078 47.395 21.1719C49.1178 18.9349 50 16.9688 50 15C50 10.8579 46.6421 7.5 42.5 7.5C38.3579 7.5 35 10.8579 35 15ZM55 15C55 15.9753 54.8744 16.9105 54.6558 17.8101C56.4765 21.4864 57.5 25.6268 57.5 30C57.5 45.1878 45.1878 57.5 30 57.5C28.6448 57.5 27.3134 57.3964 26.0107 57.207C25.9829 57.2044 25.9553 57.2008 25.9277 57.1973C12.6712 55.2293 2.5 43.804 2.5 30C2.5 28.9733 2.56129 27.9604 2.6709 26.9629C2.67738 26.8761 2.68982 26.791 2.70508 26.7065C4.33294 13.072 15.9271 2.5 30 2.5C32.5982 2.5 35.1145 2.86654 37.5024 3.54248C39.0333 2.87382 40.7227 2.5 42.5 2.5C49.4036 2.5 55 8.09644 55 15Z" fill="url(#paint0_linear_20_58)"/>
<defs>
<linearGradient id="paint0_linear_20_58" x1="10.6637" y1="47.3743" x2="48.2843" y2="13.5711" gradientUnits="userSpaceOnUse">
<stop stop-color="#F7E93F"/>
<stop offset="0.5112" stop-color="#FB09B4"/>
<stop offset="1" stop-color="#9100F8"/>
</linearGradient>
</defs>
</svg>
