<svg width="60" height="60" viewBox="0 0 60 60" fill="none" xmlns="http://www.w3.org/2000/svg">
<path d="M17.5 41.25C17.5 39.1789 15.8211 37.5 13.75 37.5C11.6789 37.5 10 39.1789 10 41.25V46.25C10 48.3211 11.6789 50 13.75 50C15.8211 50 17.5 48.3211 17.5 46.25V41.25ZM50 30C50 18.9543 41.0457 10 30 10C18.9543 10 10 18.9543 10 30V33.3398C11.1364 32.8002 12.4083 32.5 13.75 32.5C18.5825 32.5 22.5 36.4175 22.5 41.25V46.25C22.5 51.0825 18.5825 55 13.75 55C8.91751 55 5 51.0825 5 46.25V30C5 16.1929 16.1929 5 30 5C43.8071 5 55 16.1929 55 30V46.25C55 51.0825 51.0825 55 46.25 55C41.4175 55 37.5 51.0825 37.5 46.25V41.25C37.5 36.4175 41.4175 32.5 46.25 32.5C47.5917 32.5 48.8636 32.8002 50 33.3398V30ZM42.5 46.25C42.5 48.3211 44.1789 50 46.25 50C48.3211 50 50 48.3211 50 46.25V41.25C50 39.1789 48.3211 37.5 46.25 37.5C44.1789 37.5 42.5 39.1789 42.5 41.25V46.25Z" fill="url(#paint0_linear_20_42)"/>
<defs>
<linearGradient id="paint0_linear_20_42" x1="12.4215" y1="45.7948" x2="46.6221" y2="15.0647" gradientUnits="userSpaceOnUse">
<stop stop-color="#F7E93F"/>
<stop offset="0.5112" stop-color="#FB09B4"/>
<stop offset="1" stop-color="#9100F8"/>
</linearGradient>
</defs>
</svg>
