<svg width="60" height="60" viewBox="0 0 60 60" fill="none" xmlns="http://www.w3.org/2000/svg">
<path d="M45 13.0005C45 11.5591 44.9968 10.6278 44.939 9.91945C44.8835 9.24048 44.7895 8.98835 44.7266 8.86476C44.487 8.39483 44.1052 8.01305 43.6353 7.77345C43.5117 7.71047 43.2595 7.61654 42.5806 7.56105C42.2266 7.53212 41.8169 7.51506 41.3159 7.50734L39.4995 7.50001H20.5005C19.0591 7.50001 18.1278 7.50317 17.4194 7.56105C16.7405 7.61654 16.4883 7.71047 16.3647 7.77345C15.8948 8.01305 15.513 8.39483 15.2734 8.86476C15.2105 8.98835 15.1165 9.24048 15.061 9.91945C15.0032 10.6278 15 11.5591 15 13.0005V46.9995C15 48.4409 15.0032 49.3722 15.061 50.0806C15.1165 50.7595 15.2105 51.0117 15.2734 51.1353C15.513 51.6052 15.8948 51.987 16.3647 52.2266C16.4883 52.2895 16.7405 52.3835 17.4194 52.439C18.1278 52.4968 19.0591 52.5 20.5005 52.5H39.4995C40.9409 52.5 41.8722 52.4968 42.5806 52.439C43.2595 52.3835 43.5117 52.2895 43.6353 52.2266C44.1052 51.987 44.487 51.6052 44.7266 51.1353C44.7895 51.0117 44.8835 50.7595 44.939 50.0806C44.9968 49.3722 45 48.4409 45 46.9995V13.0005ZM30 40C32.0711 40 33.75 41.6789 33.75 43.75C33.75 45.8211 32.0711 47.5 30 47.5C27.9289 47.5 26.25 45.8211 26.25 43.75C26.25 41.6789 27.9289 40 30 40ZM50 46.9995C50 48.3584 50.0027 49.5291 49.9243 50.4883C49.8435 51.4764 49.664 52.46 49.1821 53.4058C48.4632 54.8163 47.3163 55.9632 45.9058 56.6821C44.96 57.164 43.9764 57.3435 42.9883 57.4243C42.0291 57.5027 40.8584 57.5 39.4995 57.5H20.5005C19.1416 57.5 17.9709 57.5027 17.0117 57.4243C16.0236 57.3435 15.04 57.164 14.0942 56.6821C12.6837 55.9632 11.5368 54.8163 10.8179 53.4058C10.336 52.46 10.1565 51.4764 10.0757 50.4883C9.99731 49.5291 10 48.3584 10 46.9995V13.0005C10 11.6416 9.99731 10.4709 10.0757 9.51173C10.1565 8.52358 10.336 7.53999 10.8179 6.59425C11.5368 5.18369 12.6837 4.03682 14.0942 3.31788C15.04 2.836 16.0236 2.65647 17.0117 2.57569C17.9709 2.49733 19.1416 2.50001 20.5005 2.50001H39.4995L41.394 2.50978C41.976 2.51909 42.5088 2.53652 42.9883 2.57569C43.9764 2.65647 44.96 2.836 45.9058 3.31788C47.3163 4.03682 48.4632 5.18369 49.1821 6.59425C49.664 7.53999 49.8435 8.52358 49.9243 9.51173C50.0027 10.4709 50 11.6416 50 13.0005V46.9995Z" fill="url(#paint0_linear_20_50)"/>
<defs>
<linearGradient id="paint0_linear_20_50" x1="15.9372" y1="47.3743" x2="50.5896" y2="24.7299" gradientUnits="userSpaceOnUse">
<stop stop-color="#F7E93F"/>
<stop offset="0.5112" stop-color="#FB09B4"/>
<stop offset="1" stop-color="#9100F8"/>
</linearGradient>
</defs>
</svg>
