<svg width="19" height="14" viewBox="0 0 19 14" fill="none" xmlns="http://www.w3.org/2000/svg">
<path d="M0.75 6.58333C0.75 3.83333 0.75 2.45833 1.97 1.60417C3.19167 0.75 5.155 0.75 9.08333 0.75C13.0117 0.75 14.9758 0.75 16.1958 1.60417C17.4158 2.45833 17.4167 3.83333 17.4167 6.58333C17.4167 9.33333 17.4167 10.7083 16.1958 11.5625C14.9767 12.4167 13.0117 12.4167 9.08333 12.4167C5.155 12.4167 3.19083 12.4167 1.97 11.5625C0.749167 10.7083 0.75 9.33333 0.75 6.58333Z" stroke="url(#paint0_linear_88_2)" stroke-width="1.5" stroke-linecap="round" stroke-linejoin="round"/>
<path d="M7.83333 4.84011V8.32678C7.83355 8.37165 7.8426 8.41604 7.85998 8.4574C7.87735 8.49877 7.9027 8.53632 7.93458 8.56789C7.96646 8.59946 8.00425 8.62444 8.04579 8.64141C8.08732 8.65838 8.1318 8.667 8.17667 8.66678C8.24428 8.6676 8.31055 8.64784 8.36667 8.61011L11.0125 6.88178C11.0596 6.85131 11.0983 6.80958 11.1252 6.76038C11.1521 6.71117 11.1663 6.65604 11.1666 6.59996C11.1668 6.54388 11.1531 6.48862 11.1266 6.43918C11.1002 6.38974 11.0618 6.34767 11.015 6.31678L8.36917 4.55845C8.29353 4.50781 8.20098 4.48904 8.11159 4.5062C8.0222 4.52336 7.94318 4.57507 7.89167 4.65011C7.85335 4.70604 7.833 4.77232 7.83333 4.84011Z" stroke="url(#paint1_linear_88_2)" stroke-width="1.5" stroke-linecap="round" stroke-linejoin="round"/>
<defs>
<linearGradient id="paint0_linear_88_2" x1="3.22384" y1="10.2688" x2="11.0059" y2="0.279691" gradientUnits="userSpaceOnUse">
<stop stop-color="#F7E93F"/>
<stop offset="0.5112" stop-color="#FB09B4"/>
<stop offset="1" stop-color="#9100F8"/>
</linearGradient>
<linearGradient id="paint1_linear_88_2" x1="8.32809" y1="7.89968" x2="11.0451" y2="5.94674" gradientUnits="userSpaceOnUse">
<stop stop-color="#F7E93F"/>
<stop offset="0.5112" stop-color="#FB09B4"/>
<stop offset="1" stop-color="#9100F8"/>
</linearGradient>
</defs>
</svg>
